<?xml version="1.0" standalone="no"?>
<!DOCTYPE svg PUBLIC "-//W3C//DTD SVG 20010904//EN"
 "http://www.w3.org/TR/2001/REC-SVG-20010904/DTD/svg10.dtd">
<svg version="1.0" xmlns="http://www.w3.org/2000/svg"
 width="512.000000pt" height="512.000000pt" viewBox="0 0 512.000000 512.000000"
 preserveAspectRatio="xMidYMid meet">

<g transform="translate(0.000000,512.000000) scale(0.100000,-0.100000)"
fill="#FFFFFF" stroke="none">
<path d="M2344 5110 c-434 -42 -846 -187 -1194 -418 -614 -408 -1006 -1027
-1122 -1767 -31 -200 -31 -530 0 -730 43 -275 119 -517 237 -760 122 -248 258
-444 446 -639 402 -418 901 -676 1484 -767 200 -32 530 -32 730 0 384 60 738
195 1045 399 612 407 1007 1029 1122 1767 31 198 31 529 0 730 -99 635 -411
1194 -892 1597 -352 295 -809 500 -1273 569 -152 22 -447 32 -583 19z m-835
-1017 c28 -82 218 -599 246 -673 8 -19 41 -111 75 -205 34 -93 84 -231 112
-305 87 -236 115 -311 178 -485 34 -93 67 -186 75 -205 17 -43 116 -315 157
-430 16 -47 33 -88 37 -92 6 -7 63 144 463 1232 88 239 223 607 301 818 l141
382 143 0 143 0 -34 -92 c-67 -184 -637 -1734 -656 -1783 -11 -27 -114 -309
-230 -625 -116 -316 -223 -608 -238 -647 -14 -40 -29 -69 -33 -65 -3 4 -18 41
-33 82 -15 41 -192 523 -393 1070 -315 858 -476 1297 -704 1918 -27 74 -49
136 -49 138 0 2 64 4 143 4 l143 0 13 -37z m604 -270 c80 -318 215 -847 286
-1128 22 -88 41 -171 40 -185 0 -14 -11 -52 -23 -85 l-24 -60 -12 30 c-6 17
-142 386 -302 820 -159 435 -301 818 -314 853 l-23 62 147 0 148 0 77 -307z
m1815 290 c-3 -10 -99 -268 -213 -573 -255 -682 -460 -1233 -684 -1835 -95
-253 -182 -487 -195 -520 l-24 -60 -51 -3 c-34 -2 -51 1 -51 9 0 11 56 162
292 794 49 132 102 274 117 315 44 119 161 433 171 456 5 12 32 84 60 160 28
77 57 155 65 174 16 39 79 206 130 345 29 79 246 655 274 728 10 25 15 27 62
27 44 0 51 -2 47 -17z m-1378 -3348 c10 -12 10 -18 0 -30 -25 -30 -61 -7 -46
30 3 8 12 15 19 15 8 0 20 -7 27 -15z m-102 -118 l3 -118 -38 1 c-21 1 -49 -2
-63 -5 -35 -9 -77 26 -86 69 -12 67 38 118 101 102 23 -6 25 -4 25 28 0 34 11
46 40 43 12 -2 16 -24 18 -120z m-565 43 c15 -33 29 -60 32 -60 3 0 17 27 32
60 24 56 28 60 59 60 l34 0 0 -110 0 -110 -25 0 c-23 0 -24 4 -27 63 l-3 62
-24 -52 c-18 -41 -29 -53 -46 -53 -17 0 -28 12 -46 53 l-24 52 -3 -62 c-3 -59
-4 -63 -27 -63 l-25 0 0 110 0 110 34 0 c31 0 35 -4 59 -60z m1257 -11 c14
-39 28 -73 32 -75 3 -2 16 26 28 63 27 81 30 86 63 81 l25 -3 -42 -105 c-42
-105 -42 -105 -76 -105 -34 0 -35 1 -72 95 -20 52 -37 101 -37 108 -1 7 11 12
27 12 25 0 30 -6 52 -71z m-930 11 c16 -8 40 -58 40 -81 0 -5 -27 -9 -61 -9
-44 0 -60 -3 -56 -12 2 -8 22 -13 48 -13 33 0 45 -4 47 -17 4 -20 -57 -43 -90
-33 -69 21 -92 102 -43 150 26 27 80 34 115 15z m340 -75 c0 -84 0 -85 -25
-85 -25 0 -25 1 -25 85 0 84 0 85 25 85 25 0 25 -1 25 -85z m178 69 c19 -13
22 -24 22 -85 l0 -69 -47 -2 c-78 -3 -97 0 -110 19 -18 24 -16 40 7 63 13 13
33 20 56 20 24 0 34 4 31 13 -2 7 -21 12 -43 12 -28 0 -39 5 -42 17 -6 29 89
38 126 12z m181 7 c8 -5 11 -16 8 -25 -5 -13 -14 -16 -42 -10 -46 8 -46 -11 0
-26 60 -20 67 -72 14 -101 -26 -14 -99 -2 -106 18 -9 24 11 35 41 22 20 -9 29
-10 38 -1 8 8 0 15 -31 28 -52 21 -66 58 -31 86 23 19 85 24 109 9z m131 -66
c0 -31 -82 -33 -88 -2 -3 14 4 17 42 17 34 0 46 -4 46 -15z"/>
<path d="M2327 644 c-12 -12 -8 -51 8 -64 26 -22 50 -8 50 30 0 30 -4 35 -25
38 -14 2 -29 0 -33 -4z"/>
<path d="M2137 654 c-15 -15 -6 -24 24 -24 20 0 29 4 27 13 -5 14 -40 21 -51
11z"/>
<path d="M2644 589 c-9 -15 12 -33 30 -26 9 4 16 13 16 22 0 17 -35 21 -46 4z"/>
</g>
</svg>
