<svg xmlns="http://www.w3.org/2000/svg" viewBox="0 0 1597 1220"><defs><style>.cls-1{fill:#67351d;}.cls-2{fill:#b6613a;}.cls-3{fill:#e2af98;}.cls-4{fill:#f5f4f3;}.cls-5,.cls-7{fill:#141210;}.cls-6{fill:#c57049;}.cls-7{stroke:#e2af98;stroke-miterlimit:10;stroke-width:5.47px;}.cls-8{fill:#fff;}</style></defs><g id="Calque_2" data-name="Calque 2"><g id="Calque_1-2" data-name="Calque 1"><path class="cls-1" d="M754,421.5V796.32c0,184.06-150.6,335.84-334.65,334.67C236.71,1129.84,89,981.41,89,798.5v-377C89,237.86,237.87,89,421.5,89S754,237.86,754,421.5Z"/><path class="cls-2" d="M843,421.5v377c0,232.79-188.71,421.5-421.5,421.5S0,1031.29,0,798.5v-377C0,188.71,188.72,0,421.5,0S843,188.71,843,421.5Z"/><path class="cls-3" d="M1597,421.5v377c0,232.79-188.71,421.5-421.5,421.5S754,1031.29,754,798.5v-377C754,188.71,942.72,0,1175.5,0S1597,188.71,1597,421.5Z"/><path class="cls-4" d="M843,421.5v377c0,232.79-188.71,421.5-421.5,421.5S0,1031.29,0,798.5v-377C0,188.71,188.72,0,421.5,0S843,188.71,843,421.5Z"/><path class="cls-5" d="M1597,421.5h0a100.59,100.59,0,0,1-98-77.09C1464.25,197.94,1332.59,89,1175.5,89,991.87,89,843,237.86,843,421.5v377A420.88,420.88,0,0,1,822.08,930,415.72,415.72,0,0,1,798.5,987.2c-69.22,138-212,232.8-377,232.8C188.71,1220,0,1031.29,0,798.5H0a100.94,100.94,0,0,1,98.11,77.61C132.91,1021.64,263.39,1130,419.35,1131,603.4,1132.16,754,980.38,754,796.32V421.5A420.88,420.88,0,0,1,774.92,290,415.72,415.72,0,0,1,798.5,232.8c69.22-138,212-232.8,377-232.8C1408.29,0,1597,188.71,1597,421.5Z"/><path class="cls-6" d="M1508,421.5V796.32c0,184.06-150.6,335.84-334.65,334.67C990.71,1129.84,843,981.41,843,798.5v-377C843,237.86,991.87,89,1175.5,89S1508,237.86,1508,421.5Z"/><path class="cls-5" d="M654.5,539.85V826a89,89,0,0,1-89,89h0V538a144,144,0,1,0-288,0V915h0a89,89,0,0,1-89-89V538c0-128.39,103.86-232.53,232.14-233C549.26,304.58,654.5,411.23,654.5,539.85Z"/><path class="cls-7" d="M1433.73,737.8v31.52c0,14.09-29.89,25.51-66.77,25.51s-66.76-11.42-66.76-25.51V737.8Z"/><ellipse class="cls-7" cx="1367.12" cy="737.8" rx="66.77" ry="25.5"/><path class="cls-7" d="M1433.73,706.28V737.8c0,14.09-29.89,25.5-66.77,25.5s-66.76-11.41-66.76-25.5V706.28Z"/><ellipse class="cls-7" cx="1367.12" cy="706.28" rx="66.77" ry="25.5"/><path class="cls-7" d="M1433.73,674.76v31.52c0,14.08-29.89,25.5-66.77,25.5s-66.76-11.42-66.76-25.5V674.76Z"/><ellipse class="cls-7" cx="1367.12" cy="674.76" rx="66.77" ry="25.5"/><path class="cls-7" d="M1433.73,643.23v31.53c0,14.08-29.89,25.5-66.77,25.5s-66.76-11.42-66.76-25.5V643.23Z"/><ellipse class="cls-7" cx="1367.12" cy="643.23" rx="66.77" ry="25.5"/><path class="cls-7" d="M1433.73,611.71v31.52c0,14.09-29.89,25.51-66.77,25.51s-66.76-11.42-66.76-25.51V611.71Z"/><ellipse class="cls-7" cx="1367.12" cy="611.71" rx="66.77" ry="25.5"/><path class="cls-7" d="M1433.73,580.19v31.52c0,14.09-29.89,25.5-66.77,25.5s-66.76-11.41-66.76-25.5V580.19Z"/><ellipse class="cls-7" cx="1367.12" cy="580.19" rx="66.77" ry="25.5"/><path class="cls-7" d="M1433.73,548.67v31.52c0,14.08-29.89,25.5-66.77,25.5s-66.76-11.42-66.76-25.5V548.67Z"/><ellipse class="cls-7" cx="1367.12" cy="548.67" rx="66.77" ry="25.5"/><path class="cls-7" d="M1433.73,517.14v31.53c0,14.08-29.89,25.5-66.77,25.5s-66.76-11.42-66.76-25.5V517.14Z"/><ellipse class="cls-7" cx="1367.12" cy="517.14" rx="66.77" ry="25.5"/><ellipse class="cls-7" cx="1367.12" cy="517.14" rx="66.77" ry="25.5"/><path class="cls-7" d="M1433.73,485.62v31.52c0,14.09-29.89,25.51-66.77,25.51s-66.76-11.42-66.76-25.51V485.62Z"/><ellipse class="cls-7" cx="1367.12" cy="485.62" rx="66.77" ry="25.5"/><path class="cls-7" d="M1433.73,454.1v31.52c0,14.09-29.89,25.5-66.77,25.5s-66.76-11.41-66.76-25.5V454.1Z"/><ellipse class="cls-7" cx="1367.12" cy="454.1" rx="66.77" ry="25.5"/><path class="cls-7" d="M1313.33,633.82v31.52c0,14.09-29.89,25.51-66.76,25.51s-66.77-11.42-66.77-25.51V633.82Z"/><ellipse class="cls-7" cx="1246.72" cy="633.82" rx="66.77" ry="25.5"/><path class="cls-7" d="M1313.33,602.3v31.52c0,14.09-29.89,25.5-66.76,25.5s-66.77-11.41-66.77-25.5V602.3Z"/><ellipse class="cls-7" cx="1246.72" cy="602.3" rx="66.77" ry="25.5"/><path class="cls-7" d="M1313.33,570.78V602.3c0,14.08-29.89,25.5-66.76,25.5s-66.77-11.42-66.77-25.5V570.78Z"/><ellipse class="cls-7" cx="1246.72" cy="570.78" rx="66.77" ry="25.5"/><path class="cls-7" d="M1313.33,539.25v31.53c0,14.08-29.89,25.5-66.76,25.5s-66.77-11.42-66.77-25.5V539.25Z"/><ellipse class="cls-7" cx="1246.72" cy="539.25" rx="66.77" ry="25.5"/><path class="cls-7" d="M1313.33,507.73v31.52c0,14.09-29.89,25.51-66.76,25.51s-66.77-11.42-66.77-25.51V507.73Z"/><ellipse class="cls-7" cx="1246.72" cy="507.73" rx="66.77" ry="25.5"/><path class="cls-7" d="M1313.33,476.21v31.52c0,14.09-29.89,25.5-66.76,25.5s-66.77-11.41-66.77-25.5V476.21Z"/><ellipse class="cls-7" cx="1246.72" cy="476.21" rx="66.77" ry="25.5"/><path class="cls-7" d="M1313.33,444.69v31.52c0,14.08-29.89,25.5-66.76,25.5s-66.77-11.42-66.77-25.5V444.69Z"/><ellipse class="cls-7" cx="1246.72" cy="444.69" rx="66.77" ry="25.5"/><path class="cls-7" d="M1313.33,413.16v31.53c0,14.08-29.89,25.5-66.76,25.5s-66.77-11.42-66.77-25.5V413.16Z"/><ellipse class="cls-7" cx="1246.72" cy="413.16" rx="66.77" ry="25.5"/><ellipse class="cls-7" cx="1246.72" cy="413.16" rx="66.77" ry="25.5"/><path class="cls-7" d="M1313.33,381.64v31.52c0,14.09-29.89,25.51-66.76,25.51s-66.77-11.42-66.77-25.51V381.64Z"/><ellipse class="cls-7" cx="1246.72" cy="381.64" rx="66.77" ry="25.5"/><path class="cls-7" d="M1313.33,350.12v31.52c0,14.09-29.89,25.5-66.76,25.5s-66.77-11.41-66.77-25.5V350.12Z"/><ellipse class="cls-7" cx="1246.72" cy="350.12" rx="66.77" ry="25.5"/><path class="cls-7" d="M1198.41,721.38v31.53c0,14.08-29.89,25.5-66.77,25.5s-66.77-11.42-66.77-25.5V721.38Z"/><ellipse class="cls-7" cx="1131.8" cy="721.38" rx="66.77" ry="25.5"/><path class="cls-7" d="M1198.41,689.86v31.52c0,14.09-29.89,25.51-66.77,25.51s-66.77-11.42-66.77-25.51V689.86Z"/><ellipse class="cls-7" cx="1131.8" cy="689.86" rx="66.77" ry="25.5"/><path class="cls-7" d="M1198.41,658.34v31.52c0,14.09-29.89,25.5-66.77,25.5s-66.77-11.41-66.77-25.5V658.34Z"/><ellipse class="cls-7" cx="1131.8" cy="658.34" rx="66.77" ry="25.5"/><path class="cls-7" d="M1198.41,626.82v31.52c0,14.08-29.89,25.5-66.77,25.5s-66.77-11.42-66.77-25.5V626.82Z"/><ellipse class="cls-7" cx="1131.8" cy="626.82" rx="66.77" ry="25.5"/><path class="cls-7" d="M1198.41,595.29v31.53c0,14.08-29.89,25.5-66.77,25.5s-66.77-11.42-66.77-25.5V595.29Z"/><ellipse class="cls-7" cx="1131.8" cy="595.29" rx="66.77" ry="25.5"/><path class="cls-7" d="M1198.41,563.77v31.52c0,14.09-29.89,25.51-66.77,25.51s-66.77-11.42-66.77-25.51V563.77Z"/><ellipse class="cls-7" cx="1131.8" cy="563.77" rx="66.77" ry="25.5"/><path class="cls-7" d="M1198.41,532.25v31.52c0,14.09-29.89,25.5-66.77,25.5s-66.77-11.41-66.77-25.5V532.25Z"/><ellipse class="cls-7" cx="1131.8" cy="532.25" rx="66.77" ry="25.5"/><path class="cls-7" d="M1198.41,500.73v31.52c0,14.08-29.89,25.5-66.77,25.5s-66.77-11.42-66.77-25.5V500.73Z"/><ellipse class="cls-7" cx="1131.8" cy="500.73" rx="66.77" ry="25.5"/><ellipse class="cls-7" cx="1131.8" cy="500.73" rx="66.77" ry="25.5"/><path class="cls-7" d="M1198.41,469.2v31.53c0,14.08-29.89,25.5-66.77,25.5s-66.77-11.42-66.77-25.5V469.2Z"/><ellipse class="cls-7" cx="1131.8" cy="469.2" rx="66.77" ry="25.5"/><path class="cls-7" d="M1198.41,437.68V469.2c0,14.09-29.89,25.51-66.77,25.51s-66.77-11.42-66.77-25.51V437.68Z"/><ellipse class="cls-7" cx="1131.8" cy="437.68" rx="66.77" ry="25.5"/><path class="cls-7" d="M1078,851.09v31.52c0,14.09-29.89,25.51-66.77,25.51s-66.76-11.42-66.76-25.51V851.09Z"/><ellipse class="cls-7" cx="1011.4" cy="851.09" rx="66.77" ry="25.5"/><path class="cls-7" d="M1078,819.57v31.52c0,14.09-29.89,25.5-66.77,25.5s-66.76-11.41-66.76-25.5V819.57Z"/><ellipse class="cls-7" cx="1011.4" cy="819.57" rx="66.77" ry="25.5"/><path class="cls-7" d="M1078,788.05v31.52c0,14.08-29.89,25.5-66.77,25.5s-66.76-11.42-66.76-25.5V788.05Z"/><ellipse class="cls-7" cx="1011.4" cy="788.05" rx="66.77" ry="25.5"/><path class="cls-7" d="M1078,756.52v31.53c0,14.08-29.89,25.5-66.77,25.5s-66.76-11.42-66.76-25.5V756.52Z"/><ellipse class="cls-7" cx="1011.4" cy="756.52" rx="66.77" ry="25.5"/><path class="cls-7" d="M1078,725v31.52c0,14.09-29.89,25.51-66.77,25.51s-66.76-11.42-66.76-25.51V725Z"/><ellipse class="cls-7" cx="1011.4" cy="725" rx="66.77" ry="25.5"/><path class="cls-7" d="M1078,693.48V725c0,14.09-29.89,25.5-66.77,25.5s-66.76-11.41-66.76-25.5V693.48Z"/><ellipse class="cls-7" cx="1011.4" cy="693.48" rx="66.77" ry="25.5"/><path class="cls-7" d="M1078,662v31.52c0,14.08-29.89,25.5-66.77,25.5s-66.76-11.42-66.76-25.5V662Z"/><ellipse class="cls-7" cx="1011.4" cy="661.96" rx="66.77" ry="25.5"/><path class="cls-7" d="M1078,630.43V662c0,14.08-29.89,25.5-66.77,25.5S944.48,676,944.48,662V630.43Z"/><ellipse class="cls-7" cx="1011.4" cy="630.43" rx="66.77" ry="25.5"/><ellipse class="cls-7" cx="1011.4" cy="630.43" rx="66.77" ry="25.5"/><path class="cls-7" d="M1078,598.91v31.52c0,14.09-29.89,25.51-66.77,25.51s-66.76-11.42-66.76-25.51V598.91Z"/><ellipse class="cls-7" cx="1011.4" cy="598.91" rx="66.77" ry="25.5"/><path class="cls-7" d="M1078,567.39v31.52c0,14.09-29.89,25.5-66.77,25.5s-66.76-11.41-66.76-25.5V567.39Z"/><ellipse class="cls-7" cx="1011.4" cy="567.39" rx="66.77" ry="25.5"/><polygon class="cls-7" points="1450.5 792.89 1034.65 995.38 900.5 835.51 1316.35 633.01 1450.5 792.89"/><polygon class="cls-8" points="1400.68 784.29 1045.32 957.33 950.32 844.11 1305.68 671.07 1400.68 784.29"/><ellipse cx="1175.5" cy="814.2" rx="58.42" ry="76.31" transform="translate(337.17 1972.62) rotate(-88.82)"/><polygon class="cls-7" points="1450.5 760.05 1034.65 962.55 900.5 802.68 1316.35 600.18 1450.5 760.05"/><polygon class="cls-8" points="1400.68 751.45 1045.32 924.5 950.32 811.27 1305.68 638.23 1400.68 751.45"/><ellipse cx="1175.5" cy="781.36" rx="58.42" ry="76.31" transform="translate(370 1940.46) rotate(-88.82)"/><polygon class="cls-7" points="1450.5 727.22 1034.65 929.71 900.5 769.84 1316.35 567.34 1450.5 727.22"/><polygon class="cls-8" points="1400.68 718.62 1045.32 891.66 950.32 778.44 1305.68 605.39 1400.68 718.62"/><ellipse cx="1175.5" cy="748.53" rx="58.42" ry="76.31" transform="translate(402.83 1908.3) rotate(-88.82)"/><polygon class="cls-7" points="1450.5 694.38 1034.65 896.88 900.5 737 1316.35 534.51 1450.5 694.38"/><polygon class="cls-3" points="1400.68 685.78 1045.32 858.83 950.32 745.6 1305.68 572.56 1400.68 685.78"/><ellipse class="cls-5" cx="1175.5" cy="715.69" rx="58.42" ry="76.31" transform="translate(435.66 1876.14) rotate(-88.82)"/></g></g></svg>